<svg id="logo-evalooni" xmlns="http://www.w3.org/2000/svg" viewBox="0 0 767.7 255.9"><defs><style>.cls-1{fill:none;}.cls-2{fill:#f26739;}</style></defs><title>logo-evalooni</title><path class="cls-1" d="M-19.6,364.37V108.47H748.1v255.9ZM80,194.05c3,.38,5.82.79,8.61,1,1.11.09,1.53.37,1.33,1.52-.27,1.62-.41,3.26-.62,4.89-.87,6.88-1.75,13.75-2.6,20.63s-1.65,13.76-2.5,20.64-1.74,13.75-2.6,20.62Q80.27,274,79,284.61c-.24,2-.45,3.94-.68,6h67.86c.82-6.43,1.62-12.74,2.47-19.36H106.05c1.21-9.67,2.38-19,3.57-28.5h32.12c.82-6.25,1.63-12.4,2.47-18.78H111.94c.25-1.94.47-3.67.68-5.39.83-6.93,1.67-13.86,2.46-20.8.15-1.25.67-1.59,1.92-1.58,12.85.05,25.7,0,38.55,0,.64,0,1.27-.05,2-.09.82-6.41,1.63-12.72,2.48-19.37H134.43c.87-1.34,1.55-2.32,2.16-3.34a6.2,6.2,0,0,0,.48-6.09c-1.3-3-2.31-6.06-3.45-9.09-.47-1.24-1-2.47-1.48-3.83-.54.42-.94.71-1.32,1Q119,165.21,107.07,175a3.31,3.31,0,0,1-1.84.77c-4.74.16-9.49.24-14.24.34-5.45.1-10.89.21-16.34.3-.77,0-1.54.08-1.42,1a43.68,43.68,0,0,0,.84,4.54c.06.25.55.49.88.56a6.49,6.49,0,0,1,4.17,3C80.79,188,81.51,190.71,80,194.05Zm199.67,83.53c0,.54.06,1.08.08,1.61,0,1.95,0,3.9.16,5.84a5.61,5.61,0,0,0,5.53,5.46c4.59.18,9.19.16,13.78.26.91,0,1.21-.35,1.26-1.23.07-1.24.3-2.48.46-3.71L303.13,268q1.11-9,2.23-18t2.26-18c.77-6.08,1.51-12.17,2.32-18.25.16-1.24.06-2-1.38-2.39a69.49,69.49,0,0,0-30.81-2.27,51.7,51.7,0,0,0-36.83,24.3,53.44,53.44,0,0,0-8.19,33.86c.54,6.34,2.26,12.26,6.41,17.26a20,20,0,0,0,16.36,7.35,24.17,24.17,0,0,0,16.22-6.41C274.46,283.08,276.92,280.33,279.64,277.58Zm241,12.93a4.38,4.38,0,0,0,.73.21c7.4,0,14.8,0,22.2,0a1.49,1.49,0,0,0,1.07-1c.32-1.87.48-3.76.69-5.64l2-17.7c.54-4.9.89-9.84,1.66-14.71a36.25,36.25,0,0,1,9.21-18.83,16.15,16.15,0,0,1,8.11-5.15c5.09-1.26,8.28,1.11,8.13,6.29-.11,3.93-.56,7.86-1,11.77-.7,6.34-1.51,12.67-2.27,19s-1.55,13-2.32,19.45c-.24,2.11-.46,4.23-.7,6.44.63,0,1.07.09,1.51.09,7,0,13.9,0,20.85,0,1.43,0,1.72-.54,1.84-1.82.46-4.62,1-9.22,1.6-13.82.65-5.5,1.32-11,2-16.49s1.2-10.9,1.94-16.34,1.24-10.82.14-16.23c-1.34-6.64-4.31-12.25-10.62-15.47-5.14-2.62-10.56-2.63-16-1.36-8.11,1.88-14.29,6.65-19.41,13-.33.41-.68.79-1.31,1.51,0-2.62,0-4.8,0-7-.06-3.84-2-6.57-5.42-6.76-4.87-.27-9.76-.07-14.9-.07Q525.51,250,520.66,290.51Zm-6.26-48.7c-.16-1.59-.28-4.14-.7-6.64-1.26-7.5-4.28-14.16-10.16-19.17-8.51-7.25-18.49-8.85-29.12-6.74-12.46,2.47-21.73,9.69-28.33,20.38a52.31,52.31,0,0,0-7.58,31.19c.4,7,2.22,13.64,6.57,19.25,7.88,10.14,18.67,12.94,30.86,11.46a39.46,39.46,0,0,0,23.61-12C509.62,269.42,514.08,256.92,514.4,241.81Zm-82.72.08c-.18-1.8-.28-4.65-.8-7.43-1.39-7.6-4.66-14.24-10.81-19.13-8.41-6.67-18.08-8.12-28.31-6.08-12.62,2.53-22,9.86-28.57,20.76a52.21,52.21,0,0,0-7,34.23,30.91,30.91,0,0,0,8.25,18.24c8,8.23,17.91,10.42,28.85,9.07a39.26,39.26,0,0,0,22.52-10.92C426.54,270.41,431.36,257.62,431.68,241.89Zm-193.4-32.22c-6.49,0-12.68-.08-18.88,0a7,7,0,0,0-6.79,5c-1.4,3.68-2.89,7.33-4.31,11l-16,41.43c-.08.21-.2.39-.49.93-.15-.78-.24-1.2-.29-1.62-1-8.45-2-16.92-3.13-25.36-1.08-8.05-2.33-16.07-3.52-24.1a19.25,19.25,0,0,0-.75-4c-1-2.7-3.43-3.28-6-3.29-6,0-12,0-18,0-.37,0-.74.08-1.2.13.07.36.1.6.15.83q3.23,13.27,6.46,26.56,6.31,26.06,12.62,52.11a1.63,1.63,0,0,0,1.93,1.47c5.65-.06,11.3-.07,16.94,0a2.44,2.44,0,0,0,2.62-1.61Q216.25,255,232.9,220.79C234.66,217.17,236.41,213.54,238.28,209.67Zm91.79-35.93Q323,232.3,315.88,290.47c.25.13.33.21.42.21,7.45,0,14.89.06,22.34,0a1.43,1.43,0,0,0,1-.95c.48-3.45.85-6.92,1.27-10.39q1.1-9.19,2.21-18.41c.75-6.18,1.53-12.36,2.28-18.55s1.47-12.28,2.21-18.41q1.14-9.44,2.31-18.85c.65-5.35,1.32-10.69,2-16,.62-5.09,1.22-10.19,1.84-15.37Zm-254-2.81a2.58,2.58,0,0,0,.57.12q13.19-.42,26.36-.88a2.9,2.9,0,0,0,1.57-.66q19.62-15.93,39.17-31.93a3.4,3.4,0,0,0,1-2.56c-.08-1.15-1.3-1-2.18-1-4.49.17-9,.39-13.48.55-11.93.44-23.86.82-35.79,1.34a6.93,6.93,0,0,0-3.79,1.41c-12.33,9.94-24.59,20-36.86,30A7.08,7.08,0,0,0,51,168.8a2.91,2.91,0,0,0-.43,2.14c.18.5,1.11.84,1.76,1a8.52,8.52,0,0,0,1.94-.09c3.18,0,6.36,0,9.62,0a4.65,4.65,0,0,1-.13.86,18.84,18.84,0,0,0,.61,12.18,2.88,2.88,0,0,1-.24,3c-1.93,3-.35,6.44,3.09,7.29a2,2,0,0,1,1.16,1.26c1.72,6.45.8,12.65-1.91,18.65-.26.57-.51,1.14-.81,1.82,2.92.32,5.65.66,8.38.89a2,2,0,0,0,1.4-.59c2.61-2.66,3.8-6,2.77-9.48-1.34-4.5-3.45-8.78-5.32-13.12a3,3,0,0,1-.14-2.76A4.68,4.68,0,0,0,70,185.61a2.77,2.77,0,0,1-2.14-2.45c-.13-.58-.34-1.15-.45-1.73-.91-4.77-.41-9.16,3.4-12.66,7.35-6.78,14.68-13.58,22.07-20.32a8.09,8.09,0,0,1,2.7-1.49,2.07,2.07,0,0,1,2.58,1c.89,1.33.68,2.64-.78,4-3.23,2.92-6.49,5.8-9.73,8.69ZM607.7,290.74h19.76c4.07,0,4,0,4.46-4.1q1.19-10.69,2.49-21.39c.94-7.92,1.94-15.83,2.89-23.74q1.66-13.66,3.28-27.32c.17-1.46.26-2.93.4-4.46H617.39C614.16,236.68,611,263.58,607.7,290.74Zm23.91-117.48c-7-.33-13.92,6-14.2,13.43A14.11,14.11,0,0,0,631,201.2c7.48.17,14.56-6.4,14.63-13.73C645.75,179.92,639.13,173.18,631.61,173.26Z" transform="translate(19.6 -108.47)"/><path class="cls-2" d="M80,194.05c1.54-3.34.82-6-.85-8.59a6.49,6.49,0,0,0-4.17-3c-.33-.07-.82-.31-.88-.56a43.68,43.68,0,0,1-.84-4.54c-.12-1,.65-1,1.42-1,5.45-.09,10.89-.2,16.34-.3,4.75-.1,9.5-.18,14.24-.34a3.31,3.31,0,0,0,1.84-.77q11.91-9.72,23.75-19.52c.38-.31.78-.6,1.32-1,.53,1.36,1,2.59,1.48,3.83,1.14,3,2.15,6.12,3.45,9.09a6.2,6.2,0,0,1-.48,6.09c-.61,1-1.29,2-2.16,3.34h25.62c-.85,6.65-1.66,13-2.48,19.37-.75,0-1.38.09-2,.09-12.85,0-25.7,0-38.55,0-1.25,0-1.77.33-1.92,1.58-.79,6.94-1.63,13.87-2.46,20.8-.21,1.72-.43,3.45-.68,5.39h32.27c-.84,6.38-1.65,12.53-2.47,18.78H109.62c-1.19,9.46-2.36,18.83-3.57,28.5h42.56c-.85,6.62-1.65,12.93-2.47,19.36H78.28c.23-2.06.44-4,.68-6q1.31-10.62,2.63-21.23c.86-6.87,1.75-13.75,2.6-20.62s1.65-13.76,2.5-20.64,1.73-13.75,2.6-20.63c.21-1.63.35-3.27.62-4.89.2-1.15-.22-1.43-1.33-1.52C85.79,194.84,83,194.43,80,194.05Z" transform="translate(19.6 -108.47)"/><path class="cls-2" d="M279.64,277.58c-2.72,2.75-5.18,5.5-7.92,7.95a24.17,24.17,0,0,1-16.22,6.41,20,20,0,0,1-16.36-7.35c-4.15-5-5.87-10.92-6.41-17.26a53.44,53.44,0,0,1,8.19-33.86,51.7,51.7,0,0,1,36.83-24.3,69.49,69.49,0,0,1,30.81,2.27c1.44.42,1.54,1.15,1.38,2.39-.81,6.08-1.55,12.17-2.32,18.25s-1.51,12-2.26,18-1.49,12-2.23,18l-2.22,17.81c-.16,1.23-.39,2.47-.46,3.71-.05.88-.35,1.25-1.26,1.23-4.59-.1-9.19-.08-13.78-.26a5.61,5.61,0,0,1-5.53-5.46c-.14-1.94-.11-3.89-.16-5.84C279.7,278.66,279.67,278.12,279.64,277.58ZM285,224.84c-.83,0-1.51,0-2.19,0-8,.31-14.32,4-19,10.32-6,8.06-7.69,17.3-7,27.08a19.6,19.6,0,0,0,1.49,6.05c2.08,5,7.35,6.29,11.53,2.8a23.22,23.22,0,0,0,4.27-4.59,50.91,50.91,0,0,0,7.92-18.93c1-5.16,1.46-10.46,2.14-15.69C284.37,229.62,284.64,227.36,285,224.84Z" transform="translate(19.6 -108.47)"/><path class="cls-2" d="M520.66,290.51q4.83-40.42,9.63-80.56c5.14,0,10-.2,14.9.07,3.42.19,5.36,2.92,5.42,6.76,0,2.18,0,4.36,0,7,.63-.72,1-1.1,1.31-1.51,5.12-6.35,11.3-11.12,19.41-13,5.49-1.27,10.91-1.26,16,1.36,6.31,3.22,9.28,8.83,10.62,15.47,1.1,5.41.6,10.82-.14,16.23s-1.29,10.9-1.94,16.34-1.31,11-2,16.49c-.55,4.6-1.14,9.2-1.6,13.82-.12,1.28-.41,1.83-1.84,1.82-6.95-.08-13.9,0-20.85,0-.44,0-.88-.05-1.51-.09.24-2.21.46-4.33.7-6.44q1.15-9.72,2.32-19.45c.76-6.34,1.57-12.67,2.27-19,.43-3.91.88-7.84,1-11.77.15-5.18-3-7.55-8.13-6.29a16.15,16.15,0,0,0-8.11,5.15A36.25,36.25,0,0,0,549,251.67c-.77,4.87-1.12,9.81-1.66,14.71l-2,17.7c-.21,1.88-.37,3.77-.69,5.64a1.49,1.49,0,0,1-1.07,1c-7.4.05-14.8,0-22.2,0A4.38,4.38,0,0,1,520.66,290.51Z" transform="translate(19.6 -108.47)"/><path class="cls-2" d="M514.4,241.81c-.32,15.11-4.78,27.61-14.85,37.78a39.46,39.46,0,0,1-23.61,12c-12.19,1.48-23-1.32-30.86-11.46-4.35-5.61-6.17-12.22-6.57-19.25a52.31,52.31,0,0,1,7.58-31.19c6.6-10.69,15.87-17.91,28.33-20.38,10.63-2.11,20.61-.51,29.12,6.74,5.88,5,8.9,11.67,10.16,19.17C514.12,237.67,514.24,240.22,514.4,241.81Zm-23.95,1.37c-.29-2.87-.38-5.78-.92-8.6-1.28-6.75-5.54-9.32-12.24-8-4.91.95-8,4.5-10.06,8.71-4.83,9.6-5.71,19.83-4.11,30.31a9.73,9.73,0,0,0,3.32,6.53c3.32,2.61,7,2.63,10.76,1.2,4.22-1.61,6.74-5,8.65-8.92C489.13,257.72,490.23,250.57,490.45,243.18Z" transform="translate(19.6 -108.47)"/><path class="cls-2" d="M431.68,241.89c-.32,15.73-5.14,28.52-15.91,38.74a39.26,39.26,0,0,1-22.52,10.92c-10.94,1.35-20.9-.84-28.85-9.07a30.91,30.91,0,0,1-8.25-18.24,52.21,52.21,0,0,1,7-34.23c6.59-10.9,15.95-18.23,28.57-20.76,10.23-2,19.9-.59,28.31,6.08,6.15,4.89,9.42,11.53,10.81,19.13C431.4,237.24,431.5,240.09,431.68,241.89Zm-24,.13c-.16-1.56-.3-4.16-.68-6.72-1.34-9.07-8.39-10.58-14.68-8-3.66,1.49-6,4.53-7.84,7.95A44.05,44.05,0,0,0,380,251.87a44.58,44.58,0,0,0,.59,14.3c.79,3.52,2.41,6.51,6.2,7.57a11.7,11.7,0,0,0,8.19-.57c3.88-1.78,6.32-5,8.17-8.65C406.5,257.77,407.45,250.48,407.71,242Z" transform="translate(19.6 -108.47)"/><path class="cls-2" d="M238.28,209.67c-1.87,3.87-3.62,7.5-5.38,11.12Q216.28,255,199.69,289.17a2.44,2.44,0,0,1-2.62,1.61c-5.64-.08-11.29-.07-16.94,0a1.63,1.63,0,0,1-1.93-1.47q-6.28-26.06-12.62-52.11-3.22-13.27-6.46-26.56c-.05-.23-.08-.47-.15-.83.46-.05.83-.13,1.2-.13,6,0,12,0,18,0,2.56,0,5,.59,6,3.29a19.25,19.25,0,0,1,.75,4c1.19,8,2.44,16,3.52,24.1,1.13,8.44,2.09,16.91,3.13,25.36.05.42.14.84.29,1.62.29-.54.41-.72.49-.93l16-41.43c1.42-3.67,2.91-7.32,4.31-11a7,7,0,0,1,6.79-5C225.6,209.59,231.79,209.67,238.28,209.67Z" transform="translate(19.6 -108.47)"/><path class="cls-2" d="M330.07,173.74h23.68c-.62,5.18-1.22,10.28-1.84,15.37-.65,5.34-1.32,10.68-2,16q-1.15,9.42-2.31,18.85c-.74,6.13-1.46,12.27-2.21,18.41s-1.53,12.37-2.28,18.55-1.48,12.28-2.21,18.41c-.42,3.47-.79,6.94-1.27,10.39a1.43,1.43,0,0,1-1,.95c-7.45,0-14.89,0-22.34,0-.09,0-.17-.08-.42-.21Q323,232.24,330.07,173.74Z" transform="translate(19.6 -108.47)"/><path class="cls-2" d="M76.09,170.93l11.6-10.34c3.24-2.89,6.5-5.77,9.73-8.69,1.46-1.32,1.67-2.63.78-4a2.07,2.07,0,0,0-2.58-1,8.09,8.09,0,0,0-2.7,1.49C85.53,155.19,78.2,162,70.85,168.77c-3.81,3.5-4.31,7.89-3.4,12.66.11.58.32,1.15.45,1.73A2.77,2.77,0,0,0,70,185.61a4.68,4.68,0,0,1,2.67,6.26,3,3,0,0,0,.14,2.76c1.87,4.34,4,8.62,5.32,13.12,1,3.44-.16,6.82-2.77,9.48a2,2,0,0,1-1.4.59c-2.73-.23-5.46-.57-8.38-.89.3-.68.55-1.25.81-1.82,2.71-6,3.63-12.2,1.91-18.65a2,2,0,0,0-1.16-1.26c-3.44-.85-5-4.34-3.09-7.29a2.88,2.88,0,0,0,.24-3,18.84,18.84,0,0,1-.61-12.18,4.65,4.65,0,0,0,.13-.86c-3.26,0-6.44,0-9.62,0a8.52,8.52,0,0,1-1.94.09c-.65-.17-1.58-.51-1.76-1A2.91,2.91,0,0,1,51,168.8a7.08,7.08,0,0,1,1.68-1.47c12.27-10,24.53-20.06,36.86-30a6.93,6.93,0,0,1,3.79-1.41c11.93-.52,23.86-.9,35.79-1.34,4.5-.16,9-.38,13.48-.55.88,0,2.1-.16,2.18,1a3.4,3.4,0,0,1-1,2.56q-19.53,16-39.17,31.93a2.9,2.9,0,0,1-1.57.66q-13.18.48-26.36.88A2.58,2.58,0,0,1,76.09,170.93Z" transform="translate(19.6 -108.47)"/><path class="cls-2" d="M607.7,290.74c3.25-27.16,6.46-54.06,9.69-81H641c-.14,1.53-.23,3-.4,4.46q-1.62,13.67-3.28,27.32c-.95,7.91-1.95,15.82-2.89,23.74q-1.29,10.69-2.49,21.39c-.45,4.1-.39,4.1-4.46,4.1H607.7Z" transform="translate(19.6 -108.47)"/><path class="cls-2" d="M631.61,173.26c7.52-.08,14.14,6.66,14.06,14.21-.07,7.33-7.15,13.9-14.63,13.73a14.11,14.11,0,0,1-13.63-14.51C617.69,179.26,624.66,172.93,631.61,173.26Z" transform="translate(19.6 -108.47)"/><path class="cls-1" d="M285,224.84c-.32,2.52-.59,4.78-.89,7-.68,5.23-1.1,10.53-2.14,15.69A50.91,50.91,0,0,1,274,266.51a23.22,23.22,0,0,1-4.27,4.59c-4.18,3.49-9.45,2.22-11.53-2.8a19.6,19.6,0,0,1-1.49-6.05c-.69-9.78,1-19,7-27.08,4.73-6.37,11-10,19-10.32C283.45,224.82,284.13,224.84,285,224.84Z" transform="translate(19.6 -108.47)"/><path class="cls-1" d="M490.45,243.18c-.22,7.39-1.32,14.54-4.6,21.21-1.91,3.88-4.43,7.31-8.65,8.92-3.73,1.43-7.44,1.41-10.76-1.2a9.73,9.73,0,0,1-3.32-6.53c-1.6-10.48-.72-20.71,4.11-30.31,2.11-4.21,5.15-7.76,10.06-8.71,6.7-1.3,11,1.27,12.24,8C490.07,237.4,490.16,240.31,490.45,243.18Z" transform="translate(19.6 -108.47)"/><path class="cls-1" d="M407.71,242c-.26,8.46-1.21,15.75-4.59,22.5-1.85,3.68-4.29,6.87-8.17,8.65a11.7,11.7,0,0,1-8.19.57c-3.79-1.06-5.41-4.05-6.2-7.57a44.58,44.58,0,0,1-.59-14.3,44.05,44.05,0,0,1,4.54-16.62c1.81-3.42,4.18-6.46,7.84-7.95,6.29-2.58,13.34-1.07,14.68,8C407.41,237.86,407.55,240.46,407.71,242Z" transform="translate(19.6 -108.47)"/></svg>